# xmcd
#
# Track frame offsets:
#	150
#	79843
#	118023
#
# Disc length: 1842 seconds
#
# Revision: 0
# Processed by: cddbd v1.5.2PL0 Copyright (c) Steve Scherf et al.
# Submitted via: audiograbber 1.83.01
#
DISCID=1d073003
DTITLE=Klaus Schulze and Pete Namlook - The Dark Side Of The Moog [Boxset 2 - Vol
DTITLE=5-8 2016] [CD 5) - [Bonus CD]
DYEAR=2016
DGENRE=Electronic
TTITLE0=SQ 1
TTITLE1=Voices In The Dark [chill mix]
TTITLE2=SQ 4 [short cut]
EXTD=
EXTT0=
EXTT1=
EXTT2=
PLAYORDER=
